# xmcd
#
# Track frame offsets: 
#        150
#        17666
#        30870
#        45608
#        66816
#        87448
#        98056
#        114488
#        131061
#
# Disc length: 1995 seconds
#
# Revision: 0
# Processed by: cddbd v1.5.2PL0 Copyright (c) Steve Scherf et al.
# Submitted via: ExactAudioCopy v1.3
#
DISCID=6a07c909
DTITLE=Bernie Marsden - The Rory Gallagher Sessions
DYEAR=2015
DGENRE=Blues
TTITLE0=Blister On The Moon
TTITLE1=What's Going On
TTITLE2=Don't Start Me To Talking
TTITLE3=Tattooed Lady
TTITLE4=Continental Op
TTITLE5=The Loop
TTITLE6=Hands Off
TTITLE7=Wheels Within Wheels
TTITLE8=Same Old Story (unreleased)
EXTD=
EXTT0=
EXTT1=
EXTT2=
EXTT3=
EXTT4=
EXTT5=
EXTT6=
EXTT7=
EXTT8=
PLAYORDER=
